<svg width="10" height="10" viewBox="0 0 10 10" fill="none" xmlns="http://www.w3.org/2000/svg">
<path d="M8.80665 7.86C8.93218 7.98554 9.00271 8.1558 9.00271 8.33333C9.00271 8.51087 8.93218 8.68113 8.80665 8.80667C8.68111 8.9322 8.51085 9.00273 8.33331 9.00273C8.15578 9.00273 7.98552 8.9322 7.85998 8.80667L4.99998 5.94L2.13998 8.80667C2.01445 8.9322 1.84418 9.00273 1.66665 9.00273C1.48911 9.00273 1.31885 8.9322 1.19331 8.80667C1.06778 8.68113 0.997253 8.51087 0.997253 8.33333C0.997253 8.1558 1.06778 7.98554 1.19331 7.86L4.05998 5L1.19331 2.14C1.06778 2.01446 0.997253 1.8442 0.997253 1.66667C0.997253 1.48913 1.06778 1.31887 1.19331 1.19333C1.31885 1.0678 1.48911 0.997272 1.66665 0.997272C1.84418 0.997272 2.01445 1.0678 2.13998 1.19333L4.99998 4.06L7.85998 1.19333C7.98552 1.0678 8.15578 0.997272 8.33331 0.997272C8.51085 0.997272 8.68111 1.0678 8.80665 1.19333C8.93218 1.31887 9.00271 1.48913 9.00271 1.66667C9.00271 1.8442 8.93218 2.01446 8.80665 2.14L5.93998 5L8.80665 7.86Z" fill="#FAFF00"/>
</svg>
